<?xml version="1.0" encoding="UTF-8" standalone="no"?><!DOCTYPE svg PUBLIC "-//W3C//DTD SVG 1.1//EN" "http://www.w3.org/Graphics/SVG/1.1/DTD/svg11.dtd"><svg width="100%" height="100%" viewBox="0 0 28 26" version="1.1" xmlns="http://www.w3.org/2000/svg" xmlns:xlink="http://www.w3.org/1999/xlink" xml:space="preserve" xmlns:serif="http://www.serif.com/" style="fill-rule:evenodd;clip-rule:evenodd;stroke-linejoin:round;stroke-miterlimit:2;"><g><path d="M17.184,15.101c2.652,-1.376 4.316,-4.114 4.316,-7.101c0,-4.415 -3.585,-8 -8,-8c-4.415,0 -8,3.585 -8,8c0,0.297 0.017,0.594 0.05,0.889l3.975,-0.445c-0.017,-0.147 -0.025,-0.295 -0.025,-0.444c0,-2.208 1.792,-4 4,-4c2.208,0 4,1.792 4,4c0,1.494 -0.832,2.863 -2.158,3.551l1.842,3.55Z"/><path d="M16,18c0,-4.418 -3.582,-8 -8,-8c-4.415,0 -8,3.585 -8,8c0,4.415 3.585,8 8,8c1.966,0 3.864,-0.724 5.33,-2.034l-2.665,-2.983c-0.733,0.655 -1.682,1.017 -2.665,1.017c-2.208,0 -4,-1.792 -4,-4c0,-2.208 1.792,-4 4,-4c2.209,0 4,1.791 4,4l4,0Z"/><path d="M12,18c0,4.418 3.582,8 8,8c4.415,0 8,-3.585 8,-8c0,-3.357 -2.095,-6.356 -5.247,-7.511l-1.376,3.755c1.575,0.578 2.623,2.078 2.623,3.756c0,2.208 -1.792,4 -4,4c-2.209,0 -4,-1.791 -4,-4l-4,0Z"/></g></svg>