<?xml version="1.0" encoding="UTF-8" standalone="no"?><!DOCTYPE svg PUBLIC "-//W3C//DTD SVG 1.1//EN" "http://www.w3.org/Graphics/SVG/1.1/DTD/svg11.dtd"><svg width="100%" height="100%" viewBox="0 0 27 26" version="1.1" xmlns="http://www.w3.org/2000/svg" xmlns:xlink="http://www.w3.org/1999/xlink" xml:space="preserve" xmlns:serif="http://www.serif.com/" style="fill-rule:evenodd;clip-rule:evenodd;stroke-linejoin:round;stroke-miterlimit:2;"><g><path d="M14,0c7.175,0 13,5.825 13,13c0,7.175 -5.825,13 -13,13c-7.175,0 -13,-5.825 -13,-13c0,-7.175 5.825,-13 13,-13Zm0,5.092c4.365,-0 7.908,3.543 7.908,7.908c0,4.365 -3.543,7.908 -7.908,7.908c-4.365,0 -7.908,-3.543 -7.908,-7.908c-0,-4.365 3.543,-7.908 7.908,-7.908Z" style="fill-opacity:0.48;"/><path d="M1,13c0,7.18 5.82,13 13,13c7.175,0 13,-5.825 13,-13c0,-7.18 -5.82,-13 -13,-13l0,5.092c4.367,-0 7.908,3.541 7.908,7.908c0,4.365 -3.543,7.908 -7.908,7.908c-4.367,0 -7.908,-3.541 -7.908,-7.908l-5.092,0Z"/><path d="M2,9l-2,9l9,-3l-7,-6Z"/></g></svg>