<?xml version="1.0" encoding="UTF-8" standalone="no"?><!DOCTYPE svg PUBLIC "-//W3C//DTD SVG 1.1//EN" "http://www.w3.org/Graphics/SVG/1.1/DTD/svg11.dtd"><svg width="100%" height="100%" viewBox="0 0 56 61" version="1.1" xmlns="http://www.w3.org/2000/svg" xmlns:xlink="http://www.w3.org/1999/xlink" xml:space="preserve" xmlns:serif="http://www.serif.com/" style="fill-rule:evenodd;clip-rule:evenodd;stroke-linecap:round;stroke-linejoin:round;stroke-miterlimit:1.5;"><g><path d="M28.5,60c0,0 -10.559,-7.742 -15,-12.5c-4.667,-5 -13,-17.5 -13,-17.5l5.5,-7.5c0,0 5.931,11.904 9.5,17.5c3.667,5.75 12.5,17 12.5,17l7,-8.5l6.5,-8.5l-1,-3l-12.5,11l-11,-15.5l8.5,-8.5l3,3l-7,6.5l7.5,7.5l13,-11.5l5,11.5c0,0 -5.536,6.456 -8.5,9.5c-3.083,3.167 -10,9.5 -10,9.5Z" style="stroke:#000;stroke-width:1px;"/><path d="M26.75,0.5c0,0 10.559,7.742 15,12.5c4.667,5 13,17.5 13,17.5l-5.5,7.5c0,0 -5.931,-11.904 -9.5,-17.5c-3.667,-5.75 -12.5,-17 -12.5,-17l-7,8.5l-6.5,8.5l1,3l12.5,-11l11,15.5l-8.5,8.5l-3,-3l7,-6.5l-7.5,-7.5l-13,11.5l-5,-11.5c0,0 5.536,-6.456 8.5,-9.5c3.083,-3.167 10,-9.5 10,-9.5Z" style="stroke:#000;stroke-width:1px;"/></g></svg>